#!OML:ASF F:\VICON\USERDATA\INSTALL\rory3\rory3.ASF
:FULLY-SPECIFIED
:DEGREES
41
root 2.08922 17.5267 -40.5086 12.8857 0.485999 -2.29878
lowerback -7.21723 -1.62964 0.996519
upperback -4.69527 -2.22999 1.66593
thorax -0.771675 -1.11828 1.01221
lowerneck -15.5159 -2.87706 -7.98634
upperneck 25.6794 -3.09269 4.26895
head 11.0698 -1.67652 2.47034
rclavicle 3.26349e-014 1.59028e-015
rhumerus -41.8253 8.28448 -90.5351
rradius 34.4281
rwrist -0.105896
rhand -27.6365 -45.3663
rfingers 7.12502
rthumb -1.03485 -75.3436
lclavicle 3.26349e-014 1.59028e-015
lhumerus -37.2556 -7.62295 88.315
lradius 35.3137
lwrist 10.3154
lhand -32.6611 -26.1387
lfingers 7.12502
lthumb -5.88698 3.75952
rfemur -36.6539 9.40971 23.5995
rtibia 32.7244
rfoot -8.52324 -12.4805
rtoes 5.57584
lfemur -8.9283 3.7269 -17.1641
ltibia 45.8744
lfoot 1.86289 -5.4114
ltoes -3.88514
42
root 2.06783 17.5307 -40.4313 13.5455 0.00589348 -2.87564
lowerback -6.57722 -0.998111 1.89155
upperback -5.15923 -1.4119 1.34549
thorax -1.64587 -0.738798 0.253878
lowerneck -16.6991 -3.16225 -7.24975
upperneck 26.4255 -3.59194 4.12305
head 11.605 -1.84083 2.21994
rclavicle -5.22751e-015 2.80783e-015
rhumerus -41.7299 7.11162 -90.5474
rradius 34.7413
rwrist 0.887329
rhand -28.0419 -44.9553
rfingers 7.12502
rthumb -1.42634 -74.9303
lclavicle -5.22751e-015 2.80783e-015
lhumerus -37.2879 -8.76341 88.1565
lradius 35.3722
lwrist 10.3156
lhand -32.7246 -28.4906
lfingers 7.12502
lthumb -5.94831 1.40589
rfemur -36.9378 9.22946 24.3841
rtibia 32.3821
rfoot -8.34812 -11.6291
rtoes 5.793
lfemur -11.4103 4.54674 -16.6386
ltibia 48.6302
lfoot 2.69335 -5.12389
ltoes -8.31471
43
root 2.02762 17.5308 -40.3537 14.0424 -0.217184 -3.31461
lowerback -7.08868 -1.0068 1.99077
upperback -5.78281 -1.42729 1.69996
thorax -2.00528 -0.748309 0.561918
lowerneck -14.2098 -2.80963 -7.70073
upperneck 25.6372 -3.16841 4.21481
head 10.7941 -1.70404 2.39889
rclavicle 7.29912e-017 -9.98893e-015
rhumerus -42.6104 7.44868 -90.222
rradius 35.2252
rwrist 3.01549
rhand -27.7499 -43.1516
rfingers 7.12502
rthumb -1.14441 -73.1283
lclavicle 7.29912e-017 -9.98893e-015
lhumerus -38.5525 -7.83209 88.1529
lradius 35.691
lwrist 10.2157
lhand -33.2867 -27.4499
lfingers 7.12502
lthumb -6.49097 2.43062
rfemur -37.0054 9.19447 25.0569
rtibia 32.0475
rfoot -8.29956 -11.174
rtoes 6.04906
lfemur -13.7083 5.06608 -16.1347
ltibia 51.3565
lfoot 3.22836 -4.63126
ltoes -4.54353
44
root 2.01258 17.5341 -40.222 13.6728 -0.562933 -3.86421
lowerback -7.17276 -0.766538 2.68498
upperback -4.93273 -1.16893 1.81314
thorax -1.08836 -0.624695 0.290205
lowerneck -16.5244 -2.98924 -7.70704
upperneck 26.017 -3.20058 4.09205
head 11.3971 -1.71113 2.34082
rclavicle 1.63143e-015 1.8487e-014
rhumerus -41.0699 8.2928 -90.4131
rradius 35.6185
rwrist 1.52618
rhand -25.8101 -46.4953
rfingers 7.12502
rthumb 0.729193 -76.4738
lclavicle 1.63143e-015 1.8487e-014
lhumerus -37.1211 -7.47791 87.858
lradius 35.7385
lwrist 10.504
lhand -33.8146 -26.7838
lfingers 7.12502
lthumb -7.00063 3.08047
rfemur -35.8756 9.14633 25.9338
rtibia 31.7436
rfoot -8.69491 -10.6511
rtoes 6.21258
lfemur -14.6209 5.49872 -15.5611
ltibia 54.012
lfoot 3.26409 -3.89528
ltoes -1.67804
45
root 2.0047 17.5328 -40.0971 13.4069 -0.970368 -4.51467
lowerback -7.47416 -0.351556 3.54308
upperback -4.95781 -0.678276 1.80453
thorax -0.954927 -0.397524 -0.171713
lowerneck -15.1966 -3.00274 -7.61548
upperneck 25.6691 -3.33431 4.04531
head 11.0086 -1.77921 2.29307
rclavicle 8.24626e-015 -9.0447e-015
rhumerus -41.3187 7.81279 -90.1549
rradius 36.1949
rwrist 2.78201
rhand -28.5666 -41.9652
rfingers 7.12502
rthumb -1.93312 -71.9362
lclavicle 8.24626e-015 -9.0447e-015
lhumerus -37.6787 -7.49398 87.8133
lradius 35.8999
lwrist 10.5139
lhand -34.1524 -26.672
lfingers 7.12502
lthumb -7.32663 3.18111
rfemur -34.9362 9.12681 26.8553
rtibia 31.5672
rfoot -9.08413 -10.1223
rtoes 6.70808
lfemur -15.6296 5.94259 -14.9704
ltibia 56.5105
lfoot 2.14951 -3.15098
ltoes -6.89543
46
root 2.00147 17.516 -40.0147 13.9928 -2.06981 -5.32781
lowerback -7.58423 0.248157 4.47275
upperback -5.05223 0.060794 1.92337
thorax -0.9763 -0.0489866 -0.520606
lowerneck -15.6851 -3.05876 -7.77776
upperneck 25.7833 -3.3542 4.13354
head 11.155 -1.78841 2.34811
rclavicle 6.29511e-015 -1.78906e-015
rhumerus -40.7554 7.73606 -89.7838
rradius 36.6131
rwrist 3.69117
rhand -27.9689 -42.5395
rfingers 7.12502
rthumb -1.35588 -72.5149
lclavicle 6.29511e-015 -1.78906e-015
lhumerus -37.4111 -7.10455 87.6962
lradius 35.9218
lwrist 10.3633
lhand -34.3906 -26.3119
lfingers 7.12502
lthumb -7.55656 3.53307
rfemur -35.1594 9.27168 27.7682
rtibia 31.4349
rfoot -9.1626 -8.92682
rtoes 6.66447
lfemur -17.7888 7.14034 -14.5944
ltibia 58.9965
lfoot 1.21988 -2.46456
ltoes -2.44431
47
root 1.95605 17.5112 -39.9278 13.7364 -0.723084 -5.44919
lowerback -6.80188 -0.139789 4.53248
upperback -5.8937 -0.371608 2.00149
thorax -2.30477 -0.29869 -0.490124
lowerneck -13.189 -2.86458 -7.76006
upperneck 25.3903 -3.28868 4.15232
head 10.5118 -1.77957 2.37418
rclavicle -1.57382e-014 3.4191e-014
rhumerus -42.3293 7.91311 -90.1523
rradius 37.2173
rwrist 3.40342
rhand -26.9618 -44.4717
rfingers 7.12502
rthumb -0.383164 -74.4511
lclavicle -1.57382e-014 3.4191e-014
lhumerus -39.1649 -7.09442 87.7148
lradius 36.2311
lwrist 10.4665
lhand -34.3941 -25.6541
lfingers 7.12502
lthumb -7.55996 4.19078
rfemur -34.4741 8.85266 28.222
rtibia 31.357
rfoot -9.42582 -9.8206
rtoes 6.30359
lfemur -19.4166 6.24313 -13.984
ltibia 61.2094
lfoot 0.388748 -2.40525
ltoes -13.2048
